<svg width="74" height="74" viewBox="0 0 74 74" fill="none" xmlns="http://www.w3.org/2000/svg">
<rect width="56" height="56" fill="black" fill-opacity="0" transform="translate(9 7)"/>
<rect width="56" height="56" fill="black" fill-opacity="0" transform="translate(9 7)"/>
<rect width="56" height="56" fill="black" fill-opacity="0" transform="translate(9 7)"/>
<g filter="url(#filter0_d)">
<rect width="56" height="56" fill="black" fill-opacity="0" transform="translate(9 7)"/>
<path d="M37 63C52.464 63 65 50.464 65 35C65 19.536 52.464 7 37 7C21.536 7 9 19.536 9 35C9 50.464 21.536 63 37 63Z" fill="#AB0000"/>
<path fill-rule="evenodd" clip-rule="evenodd" d="M42.4998 21C42.4998 19.3431 41.1566 18 39.4998 18H36.3331C34.6763 18 33.3331 19.3431 33.3331 21V28.334C33.3331 29.9908 31.99 31.334 30.3331 31.334H23C21.3431 31.334 20 32.6771 20 34.334V37.5007C20 39.1576 21.3431 40.5007 23 40.5007H30.3331C31.99 40.5007 33.3331 41.8439 33.3331 43.5007V50C33.3331 51.6569 34.6763 53 36.3331 53H39.4998C41.1566 53 42.4998 51.6569 42.4998 50V43.5007C42.4998 41.8439 43.8429 40.5007 45.4998 40.5007H52C53.6569 40.5007 55 39.1576 55 37.5007V34.334C55 32.6771 53.6569 31.334 52 31.334H45.4998C43.8429 31.334 42.4998 29.9908 42.4998 28.334V21Z" fill="white"/>
</g>
<defs>
<filter id="filter0_d" x="0" y="0" width="74" height="74" filterUnits="userSpaceOnUse" color-interpolation-filters="sRGB">
<feFlood flood-opacity="0" result="BackgroundImageFix"/>
<feColorMatrix in="SourceAlpha" type="matrix" values="0 0 0 0 0 0 0 0 0 0 0 0 0 0 0 0 0 0 255 0"/>
<feOffset dy="2"/>
<feGaussianBlur stdDeviation="4.5"/>
<feColorMatrix type="matrix" values="0 0 0 0 0 0 0 0 0 0 0 0 0 0 0 0 0 0 0.142974 0"/>
<feBlend mode="normal" in2="BackgroundImageFix" result="effect1_dropShadow"/>
<feBlend mode="normal" in="SourceGraphic" in2="effect1_dropShadow" result="shape"/>
</filter>
</defs>
</svg>
