<svg width="29" height="29" viewBox="0 0 29 29" fill="none" xmlns="http://www.w3.org/2000/svg">
<rect width="29" height="29" fill="black" fill-opacity="0"/>
<path fill-rule="evenodd" clip-rule="evenodd" d="M14.5 29C22.5082 29 29 22.5081 29 14.5C29 6.49194 22.5082 0 14.5 0C6.49182 0 0 6.49194 0 14.5C0 22.5081 6.49182 29 14.5 29ZM15.214 5C16.3186 5 17.214 5.89551 17.214 7V10.2388C17.214 11.3433 18.1094 12.2388 19.214 12.2388H22C23.1046 12.2388 24 13.1343 24 14.2388V15.2148C24 16.3193 23.1046 17.2148 22 17.2148H19.214C18.1094 17.2148 17.214 18.1104 17.214 19.2148V22C17.214 23.1045 16.3186 24 15.214 24H14.2378C13.1332 24 12.2378 23.1045 12.2378 22V19.2148C12.2378 18.1104 11.3424 17.2148 10.2378 17.2148H7C5.89539 17.2148 5 16.3193 5 15.2148V14.2388C5 13.1343 5.89539 12.2388 7 12.2388H10.2378C11.3424 12.2388 12.2378 11.3433 12.2378 10.2388V7C12.2378 5.89551 13.1332 5 14.2378 5H15.214Z" fill="#F7F7F6"/>
</svg>
